<?xml version="1.0" encoding="iso-8859-1"?>
<!-- Generator: Adobe Illustrator 19.0.0, SVG Export Plug-In . SVG Version: 6.00 Build 0)  -->
<svg version="1.1" id="Layer_1" xmlns="http://www.w3.org/2000/svg" xmlns:xlink="http://www.w3.org/1999/xlink" x="0px" y="0px"
	 viewBox="0 0 512.003 512.003" style="enable-background:new 0 0 512.003 512.003;" xml:space="preserve">
<path style="fill:#983300;" d="M279.424,337.59c17.634-17.634,42.871-23.013,65.157-16.163
	c36.554-36.554,41.692-92.636,15.407-134.676l-17.369-17.37L192.415,290.028L62.354,449.645c54.399,54.4,142.599,54.4,196.997,0
	l20.072-20.072C254.023,404.174,254.023,362.991,279.424,337.59z"/>
<path style="fill:#D5681E;" d="M325.249,152.012c-42.04-26.284-98.122-21.147-134.676,15.408
	c6.851,22.285,1.471,47.523-16.163,65.156c-25.4,25.4-66.583,25.4-91.984,0l-20.072,20.072c-54.399,54.399-54.399,142.599,0,196.997
	l0,0l280.264-280.264L325.249,152.012z"/>
<path style="fill:#4A4A4A;" d="M79.463,313.564l22.166-22.166c5.303,5.303,13.931,5.303,19.234,0
	c17.526-17.526,46.042-17.526,63.567,0l-22.166,22.166c-5.303-5.303-13.931-5.303-19.234,0
	C125.505,331.09,96.988,331.09,79.463,313.564z"/>
<path style="fill:#303030;" d="M198.435,432.538c-17.526-17.526-17.526-46.042,0-63.567c5.303-5.303,5.303-13.931,0-19.234
	l22.166-22.166c17.526,17.526,17.526,46.042,0,63.567c-5.303,5.303-5.303,13.931,0,19.234L198.435,432.538z"/>
<g>
	
		<rect x="182.598" y="203.236" transform="matrix(-0.7071 -0.7071 0.7071 -0.7071 116.6324 675.7646)" style="fill:#541D00;" width="31.348" height="220.981"/>
	
		<rect x="37.241" y="399.939" transform="matrix(-0.7071 -0.7071 0.7071 -0.7071 -234.2962 821.1353)" style="fill:#541D00;" width="31.348" height="118.307"/>
</g>
<polygon style="fill:#702600;" points="164.808,414.364 131.222,380.778 105.36,377.083 109.055,402.945 142.642,436.53 "/>
<rect x="87.665" y="351.315" transform="matrix(-0.7071 0.7071 -0.7071 -0.7071 441.6178 567.197)" style="fill:#983300;" width="31.348" height="47.492"/>
<polygon style="fill:#702600;" points="489.72,22.279 381.576,112.381 276.399,235.601 293.768,252.97 454.61,92.128 
	511.999,44.558 "/>
<polygon style="fill:#983300;" points="467.441,0 419.871,57.389 259.029,218.231 276.399,235.601 489.72,22.279 "/>
<polygon style="fill:#541D00;" points="481.91,97.262 448.324,63.676 422.462,59.981 426.158,85.843 459.743,119.428 "/>
<rect x="404.766" y="34.214" transform="matrix(-0.7071 0.7071 -0.7071 -0.7071 758.7202 -198.3515)" style="fill:#702600;" width="31.348" height="47.492"/>
<g>
</g>
<g>
</g>
<g>
</g>
<g>
</g>
<g>
</g>
<g>
</g>
<g>
</g>
<g>
</g>
<g>
</g>
<g>
</g>
<g>
</g>
<g>
</g>
<g>
</g>
<g>
</g>
<g>
</g>
</svg>
